HIERARCHY
ROOT Hips
{
	OFFSET -0.001795 -0.223333 0.028219
	CHANNELS 6 Xposition Yposition Zposition Zrotation Yrotation Xrotation 
	JOINT LeftUpLeg
	{
		OFFSET 0.069520 -0.091406 -0.006815
		CHANNELS 3 Zrotation Yrotation Xrotation
		JOINT LeftLeg
		{
			OFFSET 0.034277 -0.375199 -0.004496
			CHANNELS 3 Zrotation Yrotation Xrotation
			JOINT LeftFoot
			{
				OFFSET -0.013596 -0.397961 -0.043693
				CHANNELS 3 Zrotation Yrotation Xrotation
				JOINT LeftToe
				{
					OFFSET 0.026358 -0.055791 0.119288
					CHANNELS 3 Zrotation Yrotation Xrotation
					End Site
					{
						OFFSET 0.000000 0.000000 0.000000
					}
				}
			}
		}
	}
	JOINT RightUpLeg
	{
		OFFSET -0.067670 -0.090522 -0.004320
		CHANNELS 3 Zrotation Yrotation Xrotation
		JOINT RightLeg
		{
			OFFSET -0.038290 -0.382569 -0.008850
			CHANNELS 3 Zrotation Yrotation Xrotation
			JOINT RightFoot
			{
				OFFSET 0.015774 -0.398415 -0.042312
				CHANNELS 3 Zrotation Yrotation Xrotation
				JOINT RightToe
				{
					OFFSET -0.025372 -0.048144 0.123348
					CHANNELS 3 Zrotation Yrotation Xrotation
					End Site
					{
						OFFSET 0.000000 0.000000 0.000000
					}
				}
			}
		}
	}
	JOINT Spine
	{
		OFFSET -0.002533 0.108963 -0.026696
		CHANNELS 3 Zrotation Yrotation Xrotation
		JOINT Spine1
		{
			OFFSET 0.005487 0.135180 0.001092
			CHANNELS 3 Zrotation Yrotation Xrotation
			JOINT Spine2
			{
				OFFSET 0.001457 0.052922 0.025425
				CHANNELS 3 Zrotation Yrotation Xrotation
				JOINT Neck
				{
					OFFSET -0.002778 0.213870 -0.042857
					CHANNELS 3 Zrotation Yrotation Xrotation
					JOINT Head
					{
						OFFSET 0.005152 0.064970 0.051349
						CHANNELS 3 Zrotation Yrotation Xrotation
						End Site
						{
							OFFSET 0.000000 0.000000 0.000000
						}
					}
				}
				JOINT LeftShoulder
				{
					OFFSET 0.078845 0.121749 -0.034090
					CHANNELS 3 Zrotation Yrotation Xrotation
					JOINT LeftArm
					{
						OFFSET 0.090977 0.030469 -0.008868
						CHANNELS 3 Zrotation Yrotation Xrotation
						JOINT LeftForeArm
						{
							OFFSET 0.259612 -0.012772 -0.027456
							CHANNELS 3 Zrotation Yrotation Xrotation
							JOINT LeftHand
							{
								OFFSET 0.249234 0.008986 -0.001171
								CHANNELS 3 Zrotation Yrotation Xrotation
								End Site
								{
									OFFSET 0.000000 0.000000 0.000000
								}
							}
						}
					}
				}
				JOINT RightShoulder
				{
					OFFSET -0.081759 0.118833 -0.038615
					CHANNELS 3 Zrotation Yrotation Xrotation
					JOINT RightArm
					{
						OFFSET -0.096012 0.032551 -0.009143
						CHANNELS 3 Zrotation Yrotation Xrotation
						JOINT RightForeArm
						{
							OFFSET -0.253742 -0.013329 -0.021401
							CHANNELS 3 Zrotation Yrotation Xrotation
							JOINT RightHand
							{
								OFFSET -0.255298 0.007772 -0.005559
								CHANNELS 3 Zrotation Yrotation Xrotation
								End Site
								{
									OFFSET 0.000000 0.000000 0.000000
								}
							}
						}
					}
				}
			}
		}
	}
}
MOTION
Frames: 10
Frame Time: 0.050000
-0.123280 0.734742 2.353754 -1.129257 8.124898 7.025862 5.289231 -7.351789 -71.269437 -3.677461 -2.546166 87.669930 -1.022170 -7.036510 -7.612942 0.000000 0.000000 0.000000 -6.515365 -0.391988 -73.611795 3.871110 -2.045151 79.478136 -3.316830 -9.090446 3.109436 0.000000 0.000000 0.000000 -6.225101 -2.707581 74.080540 12.007789 -1.136264 -30.613174 8.470066 11.261608 28.513132 -9.507153 8.313093 -33.608295 0.000000 0.000000 0.000000 -35.096813 -9.182117 -1.815943 -32.851301 1.486957 -4.295799 -16.696057 -58.193281 10.719162 0.000000 0.000000 0.000000 8.720168 14.267316 7.558064 43.649108 3.837093 -4.896628 -9.923214 42.653772 -0.747301 0.000000 0.000000 0.000000 
-0.115492 0.740317 2.352492 -1.772548 7.073418 4.759082 3.000300 -7.787141 -67.181987 -2.121606 -4.411082 87.172257 -0.094007 -5.977669 -9.636545 0.000000 0.000000 0.000000 -5.046655 1.217966 -70.012705 3.427062 -1.592299 80.083495 -4.248226 -10.693522 0.807372 0.000000 0.000000 0.000000 -7.337276 -1.184554 70.358150 15.948925 -1.971300 -30.083165 6.925100 12.975475 28.237482 -9.990016 9.163612 -31.603815 0.000000 0.000000 0.000000 -35.155704 -8.276410 -3.266126 -31.151009 3.276481 -4.327841 -20.882394 -59.347250 13.175296 0.000000 0.000000 0.000000 12.530856 14.185830 8.664436 42.870225 0.851138 -6.116724 -6.628932 39.311474 0.215620 0.000000 0.000000 0.000000 
-0.112101 0.751326 2.352990 -1.611148 7.674279 1.572477 -0.583108 -9.000758 -60.659060 0.283281 -7.763719 85.263520 0.627505 -6.084950 -12.469429 0.000000 0.000000 0.000000 -5.161955 0.929851 -64.150847 4.373699 -3.139529 79.734740 -5.253962 -12.701675 -0.921854 0.000000 0.000000 0.000000 -7.547794 -1.077322 65.506621 19.057562 -2.764394 -29.521158 4.348394 12.143681 27.209442 -10.646361 9.893767 -28.091771 0.000000 0.000000 0.000000 -36.453504 -5.384068 -5.377014 -27.847801 5.374481 -4.279467 -23.921164 -60.585752 15.387731 0.000000 0.000000 0.000000 15.696523 13.435247 8.947800 43.962958 -2.624693 -7.706593 -1.816812 36.513160 1.531304 0.000000 0.000000 0.000000 
-0.112479 0.771379 2.353743 -1.353137 8.478698 -2.333043 -3.771850 -9.124562 -52.204830 2.678837 -10.542024 80.797649 1.950974 -3.129098 -13.709236 0.000000 0.000000 0.000000 -4.976761 0.875680 -55.680885 5.062075 -4.533698 77.675923 -6.304902 -14.979672 -2.627154 0.000000 0.000000 0.000000 -7.486565 -1.081408 58.406713 18.493582 -3.315363 -27.136907 3.039240 8.839313 27.902892 -9.055186 8.720538 -29.921343 0.000000 0.000000 0.000000 -33.587052 -1.847113 -6.046082 -29.586128 5.653705 -5.083567 -23.644642 -62.961056 15.987055 0.000000 0.000000 0.000000 14.910077 10.866454 6.909964 47.296034 -5.626602 -9.361708 3.822834 33.836798 3.035891 0.000000 0.000000 0.000000 
-0.115909 0.808224 2.350879 -1.518009 9.390902 -4.629676 -5.013922 -8.054853 -44.346870 4.825862 -11.892124 73.153333 1.490423 -4.004214 -12.595379 0.000000 0.000000 0.000000 -4.351619 1.061599 -46.721164 5.991207 -5.749740 71.486006 -7.243446 -17.276290 -2.452726 0.000000 0.000000 0.000000 -7.059060 -1.156125 50.409680 17.667650 -3.795449 -24.211606 1.282887 5.562172 27.359822 -7.755662 7.619404 -28.399382 0.000000 0.000000 0.000000 -29.346264 2.890328 -7.226682 -31.505547 5.520481 -5.737312 -28.883831 -65.694906 20.435049 0.000000 0.000000 0.000000 12.088658 9.414575 5.253224 52.709640 -8.728325 -11.278261 8.066104 33.316333 4.272245 0.000000 0.000000 0.000000 
-0.121008 0.868205 2.342124 -1.600371 7.802996 -5.960067 -3.216515 -5.539622 -36.753812 4.631565 -9.126530 62.735122 0.025241 -2.621016 -4.672538 0.000000 0.000000 0.000000 -2.994827 1.811471 -37.363746 7.780357 -5.687963 60.208064 -7.719170 -18.598980 3.709580 0.000000 0.000000 0.000000 -8.302263 -0.038578 41.886117 14.415926 -3.546263 -20.690808 3.414574 2.743061 28.407151 -6.995052 6.425252 -34.134114 0.000000 0.000000 0.000000 -21.170506 11.492291 -9.284138 -37.931372 4.775879 -7.264948 -50.715247 -66.495528 36.787450 0.000000 0.000000 0.000000 4.798344 2.354443 1.081849 57.219936 -9.868603 -12.271682 15.221620 32.895797 6.449317 0.000000 0.000000 0.000000 
-0.126099 0.959232 2.326689 -1.327802 6.734163 -3.877306 -1.553137 -3.802461 -30.400702 4.431251 -5.348993 43.402220 -4.772062 -3.252885 11.103014 0.000000 0.000000 0.000000 -2.503718 1.829437 -29.457875 7.025148 -3.277814 43.293663 -4.981729 -14.015926 16.220847 0.000000 0.000000 0.000000 -9.521891 0.632906 33.585943 13.968197 -3.279164 -21.379005 4.025006 1.019566 30.096868 -6.583439 5.951463 -32.948658 0.000000 0.000000 0.000000 -16.987887 15.050843 -9.710568 -39.706133 7.971403 -8.802171 -67.367772 -60.922729 45.629843 0.000000 0.000000 0.000000 0.662870 -1.187596 -0.440974 59.012933 -12.787674 -13.973126 21.183004 33.146824 8.273535 0.000000 0.000000 0.000000 
-0.130097 1.062132 2.303924 -2.056940 4.692916 -1.678427 1.703460 -2.350900 -26.413857 1.587192 -1.596112 22.695656 -7.884602 2.065625 33.807799 0.000000 0.000000 0.000000 -1.155362 1.971532 -23.963626 5.636946 -1.530795 30.853628 -2.942330 -12.618659 30.228576 0.000000 0.000000 0.000000 -7.638722 0.352670 26.604919 11.203599 -2.361464 -22.123110 3.801453 -0.203296 30.448973 -6.842263 5.888583 -28.604277 0.000000 0.000000 0.000000 -14.571538 19.203574 -10.997100 -41.874381 11.360953 -10.337658 -72.052788 -50.323920 40.837799 0.000000 0.000000 0.000000 -1.700091 -2.975246 -1.026514 58.168823 -11.421481 -13.266769 26.629768 30.660028 8.991479 0.000000 0.000000 0.000000 
-0.131867 1.156526 2.272090 -1.820405 4.211570 -0.478338 1.268511 -2.201106 -24.378231 0.482208 -0.540793 10.828154 -10.678778 2.469011 43.826711 0.000000 0.000000 0.000000 -0.114659 1.816561 -19.357522 3.171019 -0.459903 29.620879 -1.152252 -10.578379 31.680736 0.000000 0.000000 0.000000 -6.068585 0.071294 23.916574 9.343083 -1.792866 -22.520858 4.008127 2.815219 28.796261 -4.038397 4.765015 -25.360117 0.000000 0.000000 0.000000 -12.755764 14.984186 -8.749495 -44.767818 12.532539 -11.451184 -62.748022 -44.712421 29.886870 0.000000 0.000000 0.000000 1.055132 -3.104789 -1.152643 55.285042 -11.022135 -11.981063 24.875177 30.069892 8.424154 0.000000 0.000000 0.000000 
-0.132503 1.222482 2.235070 -1.270707 4.316086 -0.961488 1.489994 -2.016040 -22.904609 -2.243800 -0.025824 11.702634 -6.989713 4.353773 37.959261 0.000000 0.000000 0.000000 0.440595 1.631922 -16.444377 0.779906 0.471743 30.684318 -0.990666 -10.200970 30.734333 0.000000 0.000000 0.000000 -5.165112 -0.108049 22.737741 6.663896 -1.113052 -22.140840 3.610938 1.048398 28.366532 -5.199539 5.147401 -26.616962 0.000000 0.000000 0.000000 -14.789605 13.950582 -8.483487 -47.755490 12.376878 -12.271955 -52.708064 -43.129929 24.470016 0.000000 0.000000 0.000000 2.579705 0.262593 0.101398 54.236592 -6.251331 -10.022214 18.555688 30.443537 6.502855 0.000000 0.000000 0.000000 
